<?xml version="1.0" encoding="UTF-8" standalone="no"?>
<svg
   xmlns:dc="http://purl.org/dc/elements/1.1/"
   xmlns:cc="http://creativecommons.org/ns#"
   xmlns:rdf="http://www.w3.org/1999/02/22-rdf-syntax-ns#"
   xmlns:svg="http://www.w3.org/2000/svg"
   xmlns="http://www.w3.org/2000/svg"
   xmlns:sodipodi="http://sodipodi.sourceforge.net/DTD/sodipodi-0.dtd"
   xmlns:inkscape="http://www.inkscape.org/namespaces/inkscape"
   fill="#888888"
   viewBox="0 0 24 24"
   version="1.1"
   id="svg4487"
   sodipodi:docname="browse.svg"
   inkscape:version="0.92.1 r15371">
  <metadata
     id="metadata4493">
    <rdf:RDF>
      <cc:Work
         rdf:about="">
        <dc:format>image/svg+xml</dc:format>
        <dc:type
           rdf:resource="http://purl.org/dc/dcmitype/StillImage" />
        <dc:title></dc:title>
      </cc:Work>
    </rdf:RDF>
  </metadata>
  <defs
     id="defs4491">
    <marker
       inkscape:stockid="Arrow1Lstart"
       orient="auto"
       refY="0.0"
       refX="0.0"
       id="Arrow1Lstart"
       style="overflow:visible"
       inkscape:isstock="true">
      <path
         id="path5718"
         d="M 0.0,0.0 L 5.0,-5.0 L -12.5,0.0 L 5.0,5.0 L 0.0,0.0 z "
         style="fill-rule:evenodd;stroke:#000000;stroke-width:1pt;stroke-opacity:1;fill:#ffffff;fill-opacity:1"
         transform="scale(0.8) translate(12.5,0)" />
    </marker>
  </defs>
  <sodipodi:namedview
     pagecolor="#ffffff"
     bordercolor="#666666"
     borderopacity="1"
     objecttolerance="10"
     gridtolerance="10"
     guidetolerance="10"
     inkscape:pageopacity="0"
     inkscape:pageshadow="2"
     inkscape:window-width="1920"
     inkscape:window-height="1003"
     id="namedview4489"
     showgrid="false"
     inkscape:zoom="45.254834"
     inkscape:cx="14.235381"
     inkscape:cy="7.8345912"
     inkscape:window-x="-9"
     inkscape:window-y="-9"
     inkscape:window-maximized="1"
     inkscape:current-layer="svg4487" />
  <path
     style="fill:#ffffff;stroke:#000000;stroke-width:0.847;stroke-linejoin:round;stroke-miterlimit:4;stroke-dasharray:none;stroke-opacity:1;paint-order:markers stroke fill"
     d="M 16.869141 10.703125 C 15.677761 10.597657 14.440659 10.991588 13.494141 11.916016 C 11.93322 13.440523 11.74363 15.980775 13.054688 17.761719 C 14.288044 19.437118 16.686235 19.979667 18.478516 18.990234 L 18.908203 18.753906 L 20.447266 20.294922 C 21.294287 21.143358 22.013898 21.837891 22.044922 21.837891 C 22.145473 21.837891 23.287109 20.644319 23.287109 20.539062 C 23.287109 20.482952 22.591638 19.742563 21.742188 18.894531 L 20.199219 17.351562 L 20.466797 16.769531 C 21.049449 15.498095 20.843826 13.698624 19.978516 12.490234 C 19.207677 11.413771 18.060524 10.808594 16.869141 10.703125 z M 16.3125 12.394531 C 16.657856 12.367571 17.011382 12.407843 17.353516 12.521484 C 18.865001 13.02356 19.593598 14.837341 18.867188 16.291016 C 18.545786 16.934204 18.199065 17.263767 17.517578 17.582031 C 16.804866 17.914889 16.064431 17.8873 15.3125 17.498047 C 14.067932 16.853777 13.521033 15.481433 13.976562 14.144531 C 14.316496 13.146882 15.276429 12.475394 16.3125 12.394531 z "
     id="path6805" />
  <path
     style="fill:#ffffff;stroke-width:0.7;stroke:#000000;stroke-opacity:1;stroke-miterlimit:4;stroke-dasharray:none;stroke-linejoin:round;paint-order:markers stroke fill"
     d="M 7.3925781 3.1289062 C 6.906071 3.1261784 6.2937845 3.1309124 5.5136719 3.1386719 L 2.7207031 3.1660156 C 2.2329758 3.2147145 2.2295228 3.2134908 1.9453125 3.6191406 C 1.8872056 3.7178245 1.836395 3.9859433 1.8027344 4.203125 C 1.6863604 4.9539797 1.6965332 6.6463209 1.6816406 10.908203 C 1.6662679 15.306632 1.6884095 17.734987 1.7460938 17.949219 C 1.8663183 18.395706 2.1379577 18.718929 2.5546875 18.908203 C 2.8830595 19.057334 3.2321901 19.066659 8.2910156 19.068359 L 11.544922 19.070312 C 9.7093163 16.468811 10.005092 12.819263 12.259766 10.617188 C 13.645564 9.263733 15.456874 8.6873651 17.201172 8.8417969 C 18.283118 8.9375788 19.339471 9.3162265 20.255859 9.9648438 L 20.248047 9.1894531 L 20.222656 6.4238281 L 20.017578 6.1347656 C 19.904035 5.9755682 19.647035 5.7739169 19.447266 5.6855469 C 19.108406 5.5356864 18.804107 5.5234375 14.908203 5.5234375 L 10.732422 5.5234375 L 10.441406 5.2324219 C 10.211767 5.0027826 10.149537 4.8713615 10.148438 4.6113281 C 10.146666 4.196273 9.8456761 3.6575862 9.4785156 3.4101562 C 9.1752125 3.205756 8.8520995 3.1370899 7.3925781 3.1289062 z "
     id="path6724" />
  <path
     style="fill:#ffffff;stroke:#000000;stroke-width:0.40000001;stroke-linejoin:round;stroke-miterlimit:4;stroke-dasharray:none;stroke-opacity:1;paint-order:markers stroke fill"
     d="m -141.26189,38.275756 c -0.37628,-0.190296 -0.37862,-0.207114 -0.37515,-2.690554 l 0.003,-2.216449 0.63202,-0.520661 0.63202,-0.52066 0.014,2.372207 0.0141,2.372206 h 3.56063 c 1.95834,0 3.63761,-0.01541 3.7317,-0.03422 0.22847,-0.04569 0.67502,-0.454832 0.77839,-0.713161 0.20537,-0.513265 0.27046,-1.039499 0.28267,-2.285101 0.007,-0.706528 0.0354,-1.265155 0.0674,-1.325069 0.0305,-0.05697 0.10864,-0.151734 0.17367,-0.210584 0.10615,-0.09606 0.22953,-0.110942 1.20784,-0.145654 1.1483,-0.04075 1.69116,-0.118087 2.22486,-0.317022 0.39766,-0.148232 0.74682,-0.476137 0.8314,-0.78079 0.0422,-0.15181 0.0601,-1.875965 0.0603,-5.79773 l 2.2e-4,-5.581669 h -6.46006 -6.46014 l -0.003,0.959561 -0.003,0.959561 -0.47034,0.226158 c -0.25869,0.124388 -0.54941,0.278815 -0.64604,0.343179 l -0.17569,0.117023 v -1.655866 c 0,-1.792081 0.0181,-1.923965 0.28805,-2.100854 0.13075,-0.08567 0.65675,-0.09214 7.4938,-0.09214 h 7.35317 c 0.21288,0.0029 0.33764,0.09047 0.3531,0.315503 v 6.207784 c 0,5.821424 -0.006,6.233982 -0.0987,6.628738 -0.17615,0.751034 -0.42642,1.156785 -1.28976,2.091029 -1.58196,1.711899 -3.6203,3.7595 -4.02724,4.045551 -0.0946,0.06648 -0.33784,0.187311 -0.5406,0.26852 l -0.36865,0.147654 -4.29776,0.01459 c -4.02133,0.01367 -4.30992,0.0084 -4.48696,-0.08109 z m -3.66405,-4.82845 c -0.53622,-0.267952 -0.85386,-0.725023 -0.91491,-1.316527 -0.0364,-0.352919 0.0851,-0.797041 0.29889,-1.092137 0.0856,-0.11819 0.76695,-0.724806 1.51409,-1.34805 1.23046,-1.026406 1.35551,-1.145894 1.32736,-1.268308 -0.20703,-0.90043 -0.24002,-1.614759 -0.10435,-2.259702 0.36734,-1.746319 1.68627,-3.115588 3.39582,-3.525442 0.61001,-0.146248 1.52573,-0.145167 2.14757,0.0027 1.46381,0.347675 2.71762,1.478929 3.21408,2.899911 0.20131,0.576201 0.26268,1.041456 0.23337,1.769186 -0.0221,0.547826 -0.0544,0.737392 -0.19896,1.167578 -0.30182,0.898008 -0.8241,1.640643 -1.53179,2.178024 -0.80618,0.612162 -1.58045,0.894294 -2.58481,0.941846 -0.7534,0.03567 -1.32649,-0.06258 -1.96521,-0.336931 -0.23522,-0.101027 -0.45416,-0.167802 -0.48654,-0.148378 -0.0324,0.01946 -0.64849,0.530278 -1.36913,1.135234 -1.48431,1.246029 -1.68072,1.364549 -2.26256,1.365349 -0.31968,4.32e-4 -0.43802,-0.02681 -0.71292,-0.164179 z m 7.52307,-3.517284 c 0.45332,-0.15126 0.76178,-0.339252 1.12708,-0.686899 0.98571,-0.938089 1.23133,-2.321661 0.62663,-3.52981 -0.9213,-1.840713 -3.3611,-2.231624 -4.82039,-0.772346 -0.5454,0.545408 -0.89858,1.382507 -0.89858,2.129823 0,1.412912 1.10517,2.720169 2.51343,2.973017 0.38261,0.06869 1.06527,0.01519 1.45183,-0.113785 z"
     id="path6618-0"
     inkscape:connector-curvature="0"
     sodipodi:nodetypes="cccccccscccccccccccccccccscsccsccccccccccccccccsccscccscccccccscc" />
</svg>
