<?xml version="1.0" encoding="UTF-8" standalone="no"?>
<svg
   xmlns:dc="http://purl.org/dc/elements/1.1/"
   xmlns:cc="http://creativecommons.org/ns#"
   xmlns:rdf="http://www.w3.org/1999/02/22-rdf-syntax-ns#"
   xmlns:svg="http://www.w3.org/2000/svg"
   xmlns="http://www.w3.org/2000/svg"
   xmlns:sodipodi="http://sodipodi.sourceforge.net/DTD/sodipodi-0.dtd"
   xmlns:inkscape="http://www.inkscape.org/namespaces/inkscape"
   fill="#888888"
   viewBox="0 0 24 24"
   version="1.1"
   id="svg4487"
   sodipodi:docname="delete.svg"
   inkscape:version="0.92.1 r15371">
  <metadata
     id="metadata4493">
    <rdf:RDF>
      <cc:Work
         rdf:about="">
        <dc:format>image/svg+xml</dc:format>
        <dc:type
           rdf:resource="http://purl.org/dc/dcmitype/StillImage" />
      </cc:Work>
    </rdf:RDF>
  </metadata>
  <defs
     id="defs4491" />
  <sodipodi:namedview
     pagecolor="#ffffff"
     bordercolor="#666666"
     borderopacity="1"
     objecttolerance="10"
     gridtolerance="10"
     guidetolerance="10"
     inkscape:pageopacity="0"
     inkscape:pageshadow="2"
     inkscape:window-width="1920"
     inkscape:window-height="1003"
     id="namedview4489"
     showgrid="false"
     inkscape:zoom="16"
     inkscape:cx="7.3636493"
     inkscape:cy="14.804798"
     inkscape:window-x="-9"
     inkscape:window-y="-9"
     inkscape:window-maximized="1"
     inkscape:current-layer="svg4487"
     showguides="false" />
  <path
     style="opacity:0.2;fill:#ff3fff;fill-opacity:1;stroke:#000000;stroke-width:0.0237037;stroke-linecap:butt;stroke-miterlimit:4;stroke-dasharray:none;stroke-dashoffset:0;stroke-opacity:1;paint-order:fill markers stroke"
     d=""
     id="path6884"
     inkscape:connector-curvature="0" />
  <path
     style="opacity:1;fill:#ffffff;fill-opacity:1;stroke:#000000;stroke-width:0.23036884;stroke-linecap:butt;stroke-miterlimit:4;stroke-dasharray:none;stroke-dashoffset:0;stroke-opacity:1;paint-order:fill markers stroke"
     d="m 11.772919,4.2447642 c -0.192213,-0.00669 -0.31072,0.014374 -0.394532,0.0625 -0.235574,0.1352688 -0.495533,0.4798544 -0.533203,0.7050781 -0.01789,0.106928 0.327516,0.1943546 1.59375,0.40625 1.722848,0.2883059 1.734682,0.2865725 1.595703,-0.2578125 C 13.90352,4.6472087 13.702172,4.5318842 12.616669,4.3502329 12.231586,4.2857916 11.965131,4.2514524 11.772919,4.2447642 Z M 7.739716,5.6099986 C 6.8902751,5.648544 6.0473313,6.1160953 5.7514347,6.7135142 L 5.6811223,6.8580455 12.017059,7.9185923 18.35495,8.9791392 18.333466,8.8189829 C 18.267799,8.3098338 17.796564,7.661496 17.247528,7.3248423 L 16.894012,7.1080455 12.487762,6.3502329 C 9.5946331,5.8534265 7.9638958,5.5998265 7.739716,5.6099986 Z M 6.2983097,9.4498423 6.333466,9.6021861 c 0.034187,0.143488 1.7421875,10.0734969 1.7421875,10.1289069 0,0.01401 1.6862428,0.02539 3.7480465,0.02539 h 3.748047 l 0.03906,-0.1875 c 0.02114,-0.10324 0.407894,-2.353319 0.859375,-5 0.451484,-2.646682 0.836359,-4.8823279 0.855469,-4.9667969 l 0.03516,-0.1523438 h -5.53125 z m 5.5683593,1.1367187 c 0.133579,1.72e-4 0.169745,0.0043 0.228515,0.02539 0.09567,0.0343 0.161466,0.08709 0.197266,0.15625 l 0.0293,0.05859 0.0039,3.414062 c 7e-5,3.340103 -0.0016,3.412146 -0.02539,3.447266 -0.06541,0.09653 -0.19884,0.143837 -0.416015,0.148437 -0.084,0.0019 -0.175105,-4.59e-4 -0.203125,-0.0059 -0.144364,-0.02793 -0.279922,-0.09581 -0.326172,-0.164063 -0.02468,-0.03643 -0.02339,-0.07637 -0.02344,-3.425781 v -3.392578 l 0.0332,-0.05859 c 0.04074,-0.07356 0.123996,-0.132674 0.25,-0.173828 0.08081,-0.02653 0.111858,-0.02949 0.251953,-0.0293 z m 3.046875,0.06836 c 0.124624,0.0069 0.244837,0.0525 0.335937,0.134765 0.09255,0.08357 0.117242,0.137154 0.117188,0.277344 -9.3e-5,0.244891 -0.121026,1.688512 -0.25,3 -0.24943,2.536405 -0.31639,3.106292 -0.40625,3.443359 -0.05689,0.213438 -0.09632,0.2607 -0.261719,0.3125 -0.144418,0.04529 -0.253971,0.04832 -0.369141,0.0039 -0.09699,-0.03741 -0.171737,-0.08098 -0.210937,-0.119141 -0.113932,-0.110958 -0.104391,-0.543007 0.05273,-2.173828 0.06582,-0.683172 0.2818,-2.880525 0.31836,-3.238281 0.100958,-0.988541 0.162169,-1.39104 0.21875,-1.46875 0.01061,-0.01448 0.05139,-0.04812 0.09375,-0.07617 0.107579,-0.07127 0.236705,-0.102563 0.361328,-0.0957 z m -6.0527343,0.0098 c 0.201186,0.03113 0.3467815,0.130646 0.4042969,0.277344 0.023782,0.06066 0.062381,0.419166 0.2070313,1.851563 0.1709762,1.69308 0.3050888,3.076679 0.3574216,3.689453 0.0326,0.380481 0.047804,0.958732 0.027344,1.076172 -0.023222,0.13335 -0.048738,0.1648 -0.1679688,0.21875 -0.1811695,0.08198 -0.3252164,0.09738 -0.4707031,0.05273 -0.087485,-0.02684 -0.1742559,-0.07905 -0.2167969,-0.132813 -0.034984,-0.04421 -0.043708,-0.09801 -0.09375,-0.453124 -0.2183062,-1.549138 -0.6378114,-5.764522 -0.6171874,-6.212891 0.00346,-0.0751 0.013069,-0.109784 0.037109,-0.152344 0.087523,-0.154933 0.3183578,-0.248082 0.5332031,-0.214844 z"
     id="path6886"
     inkscape:connector-curvature="0" />
  <path
     style="opacity:1;fill:#ff0000;fill-opacity:1;stroke:#000000;stroke-width:0.00838052;stroke-linecap:butt;stroke-miterlimit:4;stroke-dasharray:none;stroke-dashoffset:0;stroke-opacity:1;paint-order:fill markers stroke"
     d=""
     id="path6904"
     inkscape:connector-curvature="0" />
</svg>
