<?xml version="1.0" encoding="UTF-8" standalone="no"?>
<svg
   xmlns:dc="http://purl.org/dc/elements/1.1/"
   xmlns:cc="http://creativecommons.org/ns#"
   xmlns:rdf="http://www.w3.org/1999/02/22-rdf-syntax-ns#"
   xmlns:svg="http://www.w3.org/2000/svg"
   xmlns="http://www.w3.org/2000/svg"
   xmlns:sodipodi="http://sodipodi.sourceforge.net/DTD/sodipodi-0.dtd"
   xmlns:inkscape="http://www.inkscape.org/namespaces/inkscape"
   fill="#888888"
   viewBox="0 0 24 24"
   version="1.1"
   id="svg4487"
   sodipodi:docname="edit.svg"
   inkscape:version="0.92.1 r15371">
  <metadata
     id="metadata4493">
    <rdf:RDF>
      <cc:Work
         rdf:about="">
        <dc:format>image/svg+xml</dc:format>
        <dc:type
           rdf:resource="http://purl.org/dc/dcmitype/StillImage" />
        <dc:title />
      </cc:Work>
    </rdf:RDF>
  </metadata>
  <defs
     id="defs4491" />
  <sodipodi:namedview
     pagecolor="#ffffff"
     bordercolor="#666666"
     borderopacity="1"
     objecttolerance="10"
     gridtolerance="10"
     guidetolerance="10"
     inkscape:pageopacity="0"
     inkscape:pageshadow="2"
     inkscape:window-width="1920"
     inkscape:window-height="1003"
     id="namedview4489"
     showgrid="false"
     inkscape:zoom="23.864854"
     inkscape:cx="13.579933"
     inkscape:cy="12.888387"
     inkscape:window-x="-9"
     inkscape:window-y="-9"
     inkscape:window-maximized="1"
     inkscape:current-layer="g4494" />
  <g
     id="g4494"
     transform="matrix(0.01710339,0,0,0.01710339,3.4487352,3.4486993)"
     style="fill:#cccccc;fill-opacity:1">
    <path
       id="path4492"
       d="m 920.0224,192.35671 c -30.62545,-30.78833 -59.21461,-65.3234 -94.72708,-90.65454 -32.58025,-6.760403 -48.21877,28.42626 -70.61769,44.87929 37.79309,43.90189 81.85787,82.67239 122.50174,124.21221 18.40783,-21.91022 62.06535,-44.39059 42.84303,-78.43696 z m -20.19977,165.83347 c -25.81985,25.90131 -52.53565,51.151 -77.45954,78.02971 -0.6516,103.84954 0.24435,207.69909 -0.3258,311.63008 -0.48871,38.2818 -34.04637,72.24671 -72.32815,73.54992 -157.52552,0.65161 -315.21393,0.65161 -472.73943,0.0815 -42.51723,-1.1403 -76.56359,-41.86561 -73.22411,-83.64978 -0.0814,-150.35786 -0.0814,-300.63426 0,-450.82921 -3.25803,-41.62128 30.95124,-81.69499 72.97976,-83.16109 104.33824,-1.38467 208.75795,0.0814 313.01475,-0.73306 27.04161,-24.43519 52.04694,-51.23245 77.94825,-76.97084 -138.95477,0 -277.74664,-0.73305 -416.7014,0.40725 -64.8347,1.14032 -122.99045,57.82995 -124.13075,122.99045 -0.16291,175.28175 -0.65161,350.48204 0.3258,525.76378 0.24435,63.12423 53.83886,117.85905 115.98569,123.80495 h 545.88208 c 58.8888,-10.34422 109.38819,-61.73958 110.12125,-122.90899 1.79192,-139.28057 0.40726,-278.72404 0.6516,-418.00461 z m -41.62126,-68.17416 c -40.88822,-41.13257 -82.10223,-82.02079 -123.47915,-122.7461 -90.57309,89.92149 -181.3091,179.59863 -271.39348,270.00883 40.80676,41.05111 81.77643,81.93932 123.2348,122.42028 90.65453,-89.75859 181.22763,-179.76152 271.63783,-269.68301 z M 396.37632,625.91839 c 55.46788,-15.06836 85.03445,-24.59809 140.50233,-39.50355 14.82402,-4.72414 24.67954,-7.57491 32.3359,-10.58859 -39.25921,-37.38583 -84.38285,-83.48688 -123.5606,-121.19853 -16.53447,57.09689 -32.8246,114.19378 -49.27763,171.29067 z"
       inkscape:connector-curvature="0"
       style="fill:#ffffff;fill-opacity:1;stroke-width:0.81450623" />
  </g>
</svg>
