<?xml version="1.0" encoding="UTF-8" standalone="no"?>
<svg
   xmlns:dc="http://purl.org/dc/elements/1.1/"
   xmlns:cc="http://creativecommons.org/ns#"
   xmlns:rdf="http://www.w3.org/1999/02/22-rdf-syntax-ns#"
   xmlns:svg="http://www.w3.org/2000/svg"
   xmlns="http://www.w3.org/2000/svg"
   xmlns:sodipodi="http://sodipodi.sourceforge.net/DTD/sodipodi-0.dtd"
   xmlns:inkscape="http://www.inkscape.org/namespaces/inkscape"
   height="25"
   style="clip-rule:evenodd;fill-rule:evenodd;image-rendering:optimizeQuality;shape-rendering:geometricPrecision;text-rendering:geometricPrecision"
   viewBox="0 0 2327.2517 3335.5081"
   width="25"
   xml:space="preserve"
   version="1.1"
   id="svg17"
   sodipodi:docname="email.svg"
   inkscape:version="0.92.1 r15371"><metadata
     id="metadata21"><rdf:RDF><cc:Work
         rdf:about=""><dc:format>image/svg+xml</dc:format><dc:type
           rdf:resource="http://purl.org/dc/dcmitype/StillImage" /><dc:title></dc:title><dc:title></dc:title></cc:Work></rdf:RDF></metadata><sodipodi:namedview
     pagecolor="#ffffff"
     bordercolor="#666666"
     borderopacity="1"
     objecttolerance="10"
     gridtolerance="10"
     guidetolerance="10"
     inkscape:pageopacity="0"
     inkscape:pageshadow="2"
     inkscape:window-width="1920"
     inkscape:window-height="1003"
     id="namedview19"
     showgrid="false"
     inkscape:zoom="5.2149125"
     inkscape:cx="40.54357"
     inkscape:cy="19.307555"
     inkscape:window-x="-9"
     inkscape:window-y="-9"
     inkscape:window-maximized="1"
     inkscape:current-layer="svg17"
     units="px" /><defs
     id="defs4"><style
       type="text/css"
       id="style2"><![CDATA[
    .fil2 {fill:none}
    .fil0 {fill:#424242}
    .fil1 {fill:#424242;fill-rule:nonzero}
   ]]></style></defs><g
     id="Layer_x0020_1"
     style="fill:#076cab;fill-opacity:1"
     transform="matrix(1.4893913,0,0,1.4893913,-361.50657,142.61363)"><g
       id="_333160488"
       style="fill:#076cab;fill-opacity:1"><g
         id="g9"
         style="fill:#076cab;fill-opacity:1"><path
           style="fill:#076cab;fill-opacity:1;stroke-width:0.01302015"
           d="M 3.8183594,5.5234375 C 3.0936292,5.5234375 2.5,6.1170706 2.5,6.8417969 V 7.0214844 18.158203 c 0,0.72473 0.5936331,1.318359 1.3183594,1.318359 h 0.1171875 0.453125 16.6757811 0.117188 c 0.724726,0 1.318359,-0.593629 1.318359,-1.318359 V 6.8417969 C 22.5,6.1170706 21.906371,5.5234375 21.181641,5.5234375 H 21.064453 4.3886719 3.9355469 Z M 5.2695312,6.1816406 H 19.730469 l -7.191407,5.3691404 -0.03906,-0.0293 -0.03906,0.0293 z M 4.3886719,8.4257812 c 2.68725,2.0012408 5.352713,4.0111408 8.0546871,5.9140628 l 0.01563,0.0098 0.04102,-0.02734 0.04102,0.02734 0.01563,-0.0098 C 15.258633,12.436922 17.9241,10.427025 20.611346,8.4257812 V 18.818359 H 4.3886719 Z"
           transform="matrix(76.804028,0,0,76.804028,63.946791,63.952161)"
           id="_333160872"
           inkscape:connector-curvature="0" /></g></g></g></svg>