<?xml version="1.0" encoding="UTF-8" standalone="no"?>
<svg
   xmlns:dc="http://purl.org/dc/elements/1.1/"
   xmlns:cc="http://creativecommons.org/ns#"
   xmlns:rdf="http://www.w3.org/1999/02/22-rdf-syntax-ns#"
   xmlns:svg="http://www.w3.org/2000/svg"
   xmlns="http://www.w3.org/2000/svg"
   xmlns:sodipodi="http://sodipodi.sourceforge.net/DTD/sodipodi-0.dtd"
   xmlns:inkscape="http://www.inkscape.org/namespaces/inkscape"
   height="25"
   style="clip-rule:evenodd;fill-rule:evenodd;image-rendering:optimizeQuality;shape-rendering:geometricPrecision;text-rendering:geometricPrecision"
   viewBox="0 0 2327.2517 3335.5081"
   width="25"
   xml:space="preserve"
   version="1.1"
   id="svg17"
   sodipodi:docname="linkedin.svg"
   inkscape:version="0.92.1 r15371"><metadata
     id="metadata21"><rdf:RDF><cc:Work
         rdf:about=""><dc:format>image/svg+xml</dc:format><dc:type
           rdf:resource="http://purl.org/dc/dcmitype/StillImage" /><dc:title /><dc:title /></cc:Work></rdf:RDF></metadata><sodipodi:namedview
     pagecolor="#ffffff"
     bordercolor="#666666"
     borderopacity="1"
     objecttolerance="10"
     gridtolerance="10"
     guidetolerance="10"
     inkscape:pageopacity="0"
     inkscape:pageshadow="2"
     inkscape:window-width="1920"
     inkscape:window-height="1003"
     id="namedview19"
     showgrid="false"
     inkscape:zoom="14.75"
     inkscape:cx="26.814371"
     inkscape:cy="22.78641"
     inkscape:window-x="-9"
     inkscape:window-y="-9"
     inkscape:window-maximized="1"
     inkscape:current-layer="svg17"
     units="px" /><defs
     id="defs4"><style
       type="text/css"
       id="style2"><![CDATA[
    .fil2 {fill:none}
    .fil0 {fill:#424242}
    .fil1 {fill:#424242;fill-rule:nonzero}
   ]]></style></defs><g
     id="g4522"
     transform="matrix(0.9,0,0,0.9,127.19116,94.100146)"><path
       inkscape:connector-curvature="0"
       id="path28"
       style="fill:#076cab;fill-opacity:1;fill-rule:evenodd;stroke:none;stroke-width:35.63381577"
       d="M 641.92537,2566.7418 V 1362.5326 H 241.66852 V 2566.7418 Z M 441.79517,1198.1181 c 139.57763,0 226.45291,-92.4697 226.45291,-208.0302 -2.60109,-118.16172 -86.87528,-208.06583 -223.80533,-208.06583 -136.91582,0 -226.43506,89.90411 -226.43506,208.06583 0,115.5605 86.85738,208.0302 221.17907,208.0302 h 2.60113 z" /><path
       inkscape:connector-curvature="0"
       id="path30"
       style="fill:#076cab;fill-opacity:1;fill-rule:evenodd;stroke:none;stroke-width:35.63381577"
       d="m 863.40027,2566.7418 h 400.25323 v -672.4814 c 0,-35.9902 2.6011,-71.9447 13.1703,-97.6723 28.9347,-71.909 94.7931,-146.3837 205.3648,-146.3837 144.8337,0 202.7707,110.4292 202.7707,272.3136 v 644.2238 h 400.2212 v -690.4765 c 0,-369.879 -197.4648,-541.9904 -460.8022,-541.9904 -215.9268,0 -310.7198,120.6918 -363.3866,202.899 h 2.6725 V 1362.5326 H 863.41094 c 5.25242,112.9948 0,1204.2092 0,1204.2092 z" /></g></svg>