<?xml version="1.0" encoding="UTF-8" standalone="no"?>
<svg
   xmlns:dc="http://purl.org/dc/elements/1.1/"
   xmlns:cc="http://creativecommons.org/ns#"
   xmlns:rdf="http://www.w3.org/1999/02/22-rdf-syntax-ns#"
   xmlns:svg="http://www.w3.org/2000/svg"
   xmlns="http://www.w3.org/2000/svg"
   xmlns:sodipodi="http://sodipodi.sourceforge.net/DTD/sodipodi-0.dtd"
   xmlns:inkscape="http://www.inkscape.org/namespaces/inkscape"
   fill="#888888"
   viewBox="0 0 24 24"
   version="1.1"
   id="svg4487"
   sodipodi:docname="set-color.svg"
   inkscape:version="0.92.1 r15371">
  <metadata
     id="metadata4493">
    <rdf:RDF>
      <cc:Work
         rdf:about="">
        <dc:format>image/svg+xml</dc:format>
        <dc:type
           rdf:resource="http://purl.org/dc/dcmitype/StillImage" />
        <dc:title></dc:title>
      </cc:Work>
    </rdf:RDF>
  </metadata>
  <defs
     id="defs4491">
    <pattern
       y="0"
       x="0"
       height="6"
       width="6"
       patternUnits="userSpaceOnUse"
       id="EMFhbasepattern" />
  </defs>
  <sodipodi:namedview
     pagecolor="#ffffff"
     bordercolor="#666666"
     borderopacity="1"
     objecttolerance="10"
     gridtolerance="10"
     guidetolerance="10"
     inkscape:pageopacity="0"
     inkscape:pageshadow="2"
     inkscape:window-width="1920"
     inkscape:window-height="1003"
     id="namedview4489"
     showgrid="false"
     inkscape:zoom="11.932427"
     inkscape:cx="-27.600817"
     inkscape:cy="8.1828145"
     inkscape:window-x="-9"
     inkscape:window-y="-9"
     inkscape:window-maximized="1"
     inkscape:current-layer="svg4487" />
  <path
     id="path4485-4"
     d="M 8.1834571,3.5212764 C 7.5747764,3.6286074 6.9704882,4.090274 6.6837821,4.675443 L 6.5235207,5.0062558 6.4985258,7.4983746 6.4750012,9.9949045 4.7371395,11.737182 c -1.6158277,1.615834 -1.7422724,1.752569 -1.7422724,1.908419 0,0.155851 0.2087624,0.37492 3.2757642,3.446328 1.7952211,1.80109 3.3287127,3.309594 3.4022271,3.34929 0.072044,0.03823 0.1793751,0.06763 0.2425974,0.06763 0.083806,0 1.1497462,-1.036545 4.1285312,-4.010915 l 4.015318,-4.010913 0.30582,-0.02941 c 0.389626,-0.03382 0.496957,-0.09263 0.496957,-0.26318 0,-0.10586 -0.598407,-0.724846 -3.543356,-3.6742209 -3.246377,-3.2463637 -3.558078,-3.54336 -3.688933,-3.5286571 l -0.141148,0.014703 -0.0147,1.9995765 -0.01103,2.0010463 0.166143,0.2822916 c 0.189667,0.3116991 0.242597,0.5645867 0.213191,1.0130206 -0.03382,0.564587 -0.369042,1.045367 -0.904227,1.308547 -0.292587,0.147029 -0.366083,0.161731 -0.741006,0.15585 C 9.701529,11.762177 9.4383475,11.659257 9.0972408,11.34756 8.5135366,10.812379 8.3915027,9.921392 8.8105347,9.2597681 L 8.9752069,8.9965885 8.9807205,8.2423364 V 7.4880844 L 8.1529486,8.315849 7.325195,9.1436154 v -1.948116 c 0,-2.1892417 0,-2.1613063 0.3690422,-2.5156437 0.2543598,-0.2381848 0.5160526,-0.3411031 0.8762731,-0.3411031 0.5307738,-0.00441 0.9939144,0.3366922 1.1585866,0.8468783 0.069104,0.2102493 0.077925,0.5263593 0.077925,2.2201174 v 1.971641 L 9.617355,9.5817574 C 9.3791684,9.8434668 9.3203569,10.116938 9.4423908,10.422756 c 0.3411067,0.85276 1.5820112,0.623397 1.5820112,-0.296996 0,-0.2617092 -0.07793,-0.4381419 -0.263182,-0.6131043 L 10.634776,9.396503 V 7.3954563 c 0,-1.6202437 -0.0147,-2.0583857 -0.07793,-2.3171545 C 10.308372,4.0226426 9.2629973,3.3360238 8.182336,3.5212782 Z"
     style="fill:#ffffff;fill-opacity:1;fill-rule:nonzero;stroke:#000000;stroke-width:0.4;stroke-linecap:butt;stroke-linejoin:miter;stroke-miterlimit:4;stroke-dasharray:none;stroke-opacity:1"
     inkscape:connector-curvature="0" />
  <path
     id="path4487"
     d="m 18.712113,13.805861 c -0.20437,0.15585 -1.236493,1.879014 -1.529081,2.55093 -0.389626,0.901279 -0.404329,1.415876 -0.06322,2.064269 0.802777,1.523205 2.974373,1.470277 3.703618,-0.08822 0.20437,-0.442553 0.239657,-0.973323 0.08822,-1.464395 C 20.721983,16.240635 19.607523,14.244 19.247303,13.874961 19.101739,13.733817 18.853261,13.7 18.712113,13.805861 Z"
     style="fill:#ffffff;fill-opacity:1;fill-rule:nonzero;stroke:#000000;stroke-width:0.4;stroke-linecap:butt;stroke-linejoin:miter;stroke-miterlimit:4;stroke-dasharray:none;stroke-opacity:1"
     inkscape:connector-curvature="0" />
</svg>
