<?xml version="1.0" encoding="UTF-8" standalone="no"?>
<svg
   xmlns:dc="http://purl.org/dc/elements/1.1/"
   xmlns:cc="http://creativecommons.org/ns#"
   xmlns:rdf="http://www.w3.org/1999/02/22-rdf-syntax-ns#"
   xmlns:svg="http://www.w3.org/2000/svg"
   xmlns="http://www.w3.org/2000/svg"
   xmlns:sodipodi="http://sodipodi.sourceforge.net/DTD/sodipodi-0.dtd"
   xmlns:inkscape="http://www.inkscape.org/namespaces/inkscape"
   fill="#ffffff"
   viewBox="0 0 24 24"
   version="1.1"
   id="svg4500"
   sodipodi:docname="search.svg"
   inkscape:version="0.92.1 r15371">
  <metadata
     id="metadata4506">
    <rdf:RDF>
      <cc:Work
         rdf:about="">
        <dc:format>image/svg+xml</dc:format>
        <dc:type
           rdf:resource="http://purl.org/dc/dcmitype/StillImage" />
        <dc:title></dc:title>
      </cc:Work>
    </rdf:RDF>
  </metadata>
  <defs
     id="defs4504" />
  <sodipodi:namedview
     pagecolor="#ffffff"
     bordercolor="#666666"
     borderopacity="1"
     objecttolerance="10"
     gridtolerance="10"
     guidetolerance="10"
     inkscape:pageopacity="0"
     inkscape:pageshadow="2"
     inkscape:window-width="1920"
     inkscape:window-height="1003"
     id="namedview4502"
     showgrid="false"
     inkscape:zoom="9.8333333"
     inkscape:cx="12"
     inkscape:cy="12"
     inkscape:window-x="-9"
     inkscape:window-y="-9"
     inkscape:window-maximized="1"
     inkscape:current-layer="svg4500" />
  <g
     style="fill:#ffffff"
     id="g4550"
     transform="matrix(0.59570383,0,0,0.59570383,4.8515542,5.5225515)">
    <g
       style="fill:#ffffff"
       transform="translate(1.4204806,0.1054687)"
       id="g4495">
      <path
         style="opacity:1;fill:#ffffff;fill-opacity:1;stroke:none;stroke-width:3.91907644;stroke-miterlimit:4;stroke-dasharray:none;stroke-opacity:1;paint-order:markers stroke fill"
         d="M 14.657868,-0.13794653 A 6.8433385,6.8433386 0 0 0 7.8150949,6.704827 6.8433385,6.8433386 0 0 0 8.8871657,10.380804 l -8.80000048,8.8 c -0.57169035,0.571689 -0.57169035,1.49296 0,2.064648 0.57169024,0.571691 1.49295818,0.571691 2.06464848,0 l 8.7978523,-8.795703 a 6.8433385,6.8433386 0 0 0 3.708202,1.097852 6.8433385,6.8433386 0 0 0 6.842773,-6.842774 6.8433385,6.8433386 0 0 0 -6.842773,-6.84277353 z m 0,1.89492193 A 4.9342329,4.9342329 0 0 1 19.59283,6.6919363 4.9342329,4.9342329 0 0 1 14.657868,11.626897 4.9342329,4.9342329 0 0 1 9.7229072,6.6919363 4.9342329,4.9342329 0 0 1 14.657868,1.7569754 Z"
         id="path4505"
         inkscape:connector-curvature="0" />
    </g>
  </g>
</svg>
