<?xml version="1.0" encoding="UTF-8" standalone="no"?>
<svg
   xmlns:dc="http://purl.org/dc/elements/1.1/"
   xmlns:cc="http://creativecommons.org/ns#"
   xmlns:rdf="http://www.w3.org/1999/02/22-rdf-syntax-ns#"
   xmlns:svg="http://www.w3.org/2000/svg"
   xmlns="http://www.w3.org/2000/svg"
   xmlns:sodipodi="http://sodipodi.sourceforge.net/DTD/sodipodi-0.dtd"
   xmlns:inkscape="http://www.inkscape.org/namespaces/inkscape"
   height="25"
   style="clip-rule:evenodd;fill-rule:evenodd;image-rendering:optimizeQuality;shape-rendering:geometricPrecision;text-rendering:geometricPrecision"
   viewBox="0 0 2327.2517 3335.5081"
   width="25"
   xml:space="preserve"
   version="1.1"
   id="svg17"
   sodipodi:docname="telegram.svg"
   inkscape:version="0.92.1 r15371"><metadata
     id="metadata21"><rdf:RDF><cc:Work
         rdf:about=""><dc:format>image/svg+xml</dc:format><dc:type
           rdf:resource="http://purl.org/dc/dcmitype/StillImage" /><dc:title /><dc:title /></cc:Work></rdf:RDF></metadata><sodipodi:namedview
     pagecolor="#ffffff"
     bordercolor="#666666"
     borderopacity="1"
     objecttolerance="10"
     gridtolerance="10"
     guidetolerance="10"
     inkscape:pageopacity="0"
     inkscape:pageshadow="2"
     inkscape:window-width="1920"
     inkscape:window-height="1003"
     id="namedview19"
     showgrid="false"
     inkscape:zoom="14.75"
     inkscape:cx="10.335134"
     inkscape:cy="6.9702947"
     inkscape:window-x="-9"
     inkscape:window-y="-9"
     inkscape:window-maximized="1"
     inkscape:current-layer="svg17"
     units="px" /><defs
     id="defs4"><style
       type="text/css"
       id="style2"><![CDATA[
    .fil2 {fill:none}
    .fil0 {fill:#424242}
    .fil1 {fill:#424242;fill-rule:nonzero}
   ]]></style></defs><path
     inkscape:connector-curvature="0"
     style="fill:#076cab;fill-opacity:1;stroke-width:5.2299943"
     id="path9"
     d="M 1913.707,885.49173 102.31036,1584.1512 C -21.320356,1633.754 -20.587172,1702.71 79.775818,1733.4578 l 451.767812,141.0059 172.85696,529.9661 c 21.01438,58.0048 10.65522,81.0102 71.56592,81.0102 47.00638,0 67.85934,-21.4314 94.03981,-47.0065 16.64864,-16.292 115.49806,-112.3971 225.87048,-219.7087 l 469.9233,347.2007 c 86.4721,47.706 148.9097,22.992 170.4421,-80.3106 l 308.468,-1453.6214 C 2076.2923,905.37602 1996.439,847.9431 1913.707,885.49173 Z M 602.44349,1842.0678 1620.7307,1199.6237 c 50.8338,-30.8286 97.4434,-14.2537 59.1749,19.7163 l -871.91991,786.6921 -33.94983,362.1003 z" /></svg>