<?xml version="1.0" encoding="UTF-8" standalone="no"?>
<svg
   xmlns:dc="http://purl.org/dc/elements/1.1/"
   xmlns:cc="http://creativecommons.org/ns#"
   xmlns:rdf="http://www.w3.org/1999/02/22-rdf-syntax-ns#"
   xmlns:svg="http://www.w3.org/2000/svg"
   xmlns="http://www.w3.org/2000/svg"
   xmlns:sodipodi="http://sodipodi.sourceforge.net/DTD/sodipodi-0.dtd"
   xmlns:inkscape="http://www.inkscape.org/namespaces/inkscape"
   height="25"
   style="clip-rule:evenodd;fill-rule:evenodd;image-rendering:optimizeQuality;shape-rendering:geometricPrecision;text-rendering:geometricPrecision"
   viewBox="0 0 2327.2517 3335.5081"
   width="25"
   xml:space="preserve"
   version="1.1"
   id="svg17"
   sodipodi:docname="vkontakte.svg"
   inkscape:version="0.92.1 r15371"><metadata
     id="metadata21"><rdf:RDF><cc:Work
         rdf:about=""><dc:format>image/svg+xml</dc:format><dc:type
           rdf:resource="http://purl.org/dc/dcmitype/StillImage" /><dc:title /><dc:title /></cc:Work></rdf:RDF></metadata><sodipodi:namedview
     pagecolor="#ffffff"
     bordercolor="#666666"
     borderopacity="1"
     objecttolerance="10"
     gridtolerance="10"
     guidetolerance="10"
     inkscape:pageopacity="0"
     inkscape:pageshadow="2"
     inkscape:window-width="1920"
     inkscape:window-height="1003"
     id="namedview19"
     showgrid="false"
     inkscape:zoom="14.75"
     inkscape:cx="10.335134"
     inkscape:cy="6.9702947"
     inkscape:window-x="-9"
     inkscape:window-y="-9"
     inkscape:window-maximized="1"
     inkscape:current-layer="svg17"
     units="px" /><defs
     id="defs4"><style
       type="text/css"
       id="style2"><![CDATA[
    .fil2 {fill:none}
    .fil0 {fill:#424242}
    .fil1 {fill:#424242;fill-rule:nonzero}
   ]]></style></defs><path
     inkscape:connector-curvature="0"
     d="m 2209.6419,1104.8329 c 15.2419,-50.8276 0,-88.1761 -72.5418,-88.1761 h -239.8778 c -60.9932,0 -89.1118,32.2635 -104.3618,67.8407 0,0 -121.9864,297.338 -294.7959,490.4786 -55.9081,55.9081 -81.3239,73.6965 -111.8206,73.6965 -15.2461,0 -37.3182,-17.7884 -37.3182,-68.6116 v -475.2281 c 0,-60.9932 -17.7005,-88.1761 -68.5326,-88.1761 H 903.44234 c -38.11534,0 -61.03822,28.3083 -61.03822,55.1371 0,57.8201 86.40045,71.1543 95.30654,233.8024 v 353.2462 c 0,77.448 -13.98672,91.4896 -44.48329,91.4896 -81.3198,0 -279.13055,-298.6663 -396.45069,-640.4187 -22.99181,-66.4248 -46.05234,-93.2566 -107.35855,-93.2566 H 149.54026 c -68.536536,0 -82.244705,32.2635 -82.244705,67.8407 0,63.5355 81.324035,378.6621 378.657905,795.4396 198.22104,284.6259 477.50154,438.9142 731.63494,438.9142 152.4784,0 171.3414,-34.2683 171.3414,-93.2953 v -215.1192 c 0,-68.5365 14.445,-82.2146 62.7302,-82.2146 35.5771,0 96.5703,17.7888 238.8873,155.021 162.6439,162.6439 189.4578,235.6081 280.9431,235.6081 h 239.8781 c 68.5365,0 102.8047,-34.2683 83.0361,-101.8949 -21.633,-67.4006 -99.2867,-165.1896 -202.3259,-281.1109 -55.9125,-66.0738 -139.7747,-137.2284 -165.1907,-172.8139 -35.5772,-45.7383 -25.4115,-66.0737 0,-106.7315 0,0 292.2573,-411.6968 322.7539,-551.4672 z"
     id="path4"
     style="fill:#076cab;fill-opacity:1;stroke-width:17.13413811" /></svg>