<?xml version="1.0" encoding="UTF-8" standalone="no"?>
<svg
   xmlns:dc="http://purl.org/dc/elements/1.1/"
   xmlns:cc="http://creativecommons.org/ns#"
   xmlns:rdf="http://www.w3.org/1999/02/22-rdf-syntax-ns#"
   xmlns:svg="http://www.w3.org/2000/svg"
   xmlns="http://www.w3.org/2000/svg"
   xmlns:sodipodi="http://sodipodi.sourceforge.net/DTD/sodipodi-0.dtd"
   xmlns:inkscape="http://www.inkscape.org/namespaces/inkscape"
   fill="#888888"
   viewBox="0 0 24 24"
   version="1.1"
   id="svg4487"
   sodipodi:docname="warning.svg"
   inkscape:version="0.92.1 r15371">
  <metadata
     id="metadata4493">
    <rdf:RDF>
      <cc:Work
         rdf:about="">
        <dc:format>image/svg+xml</dc:format>
        <dc:type
           rdf:resource="http://purl.org/dc/dcmitype/StillImage" />
        <dc:title></dc:title>
      </cc:Work>
    </rdf:RDF>
  </metadata>
  <defs
     id="defs4491">
    <linearGradient
       y1="45.47"
       x2="0"
       y2="-.599"
       id="0"
       gradientUnits="userSpaceOnUse"
       gradientTransform="matrix(1.31117,0,0,1.30239,737.39,159.91)">
      <stop
         id="stop4504"
         stop-color="#ffc515" />
      <stop
         id="stop4506"
         stop-color="#ffd55b"
         offset="1" />
    </linearGradient>
  </defs>
  <sodipodi:namedview
     pagecolor="#ffffff"
     bordercolor="#666666"
     borderopacity="1"
     objecttolerance="10"
     gridtolerance="10"
     guidetolerance="10"
     inkscape:pageopacity="0"
     inkscape:pageshadow="2"
     inkscape:window-width="1920"
     inkscape:window-height="1003"
     id="namedview4489"
     showgrid="false"
     inkscape:zoom="11.932427"
     inkscape:cx="9.9604257"
     inkscape:cy="2.5584365"
     inkscape:window-x="-9"
     inkscape:window-y="-9"
     inkscape:window-maximized="1"
     inkscape:current-layer="g4494" />
  <g
     id="g4494"
     transform="matrix(0.01710339,0,0,0.01710339,3.4487352,3.4486993)"
     style="fill:#cccccc;fill-opacity:1">
    <g
       id="g4515"
       transform="matrix(22.614489,0,0,22.614489,-16887.371,-3795.3285)"
       style="stroke:#40330d;stroke-opacity:1">
      <path
         id="path4511"
         d="m 797.94,212.01 -25.607,-48 c -0.736,-1.333 -2.068,-2.074 -3.551,-2.074 -1.483,0 -2.822,0.889 -3.569,2.222 l -25.417,48 c -0.598,1.185 -0.605,2.815 0.132,4 0.737,1.185 1.921,1.778 3.404,1.778 h 51.02 c 1.483,0 2.821,-0.741 3.42,-1.926 0.747,-1.185 0.753,-2.667 0.165,-4"
         inkscape:connector-curvature="0"
         style="fill:url(#0);stroke:#40330d;stroke-opacity:1;stroke-width:1.9738762;stroke-miterlimit:4;stroke-dasharray:none" />
      <path
         id="path4513"
         d="m 768.85398,178.755 c -1.43697,0 -2.59995,1.1788 -2.59995,2.59263 v 15.61189 c 0,1.4321 1.15445,2.59264 2.59995,2.59264 1.44063,0 2.59996,-1.17881 2.59996,-2.59264 v -15.61189 c 0,-1.4321 -1.15202,-2.59263 -2.59996,-2.59263 z m 0,25.99705 c -1.43697,0 -2.59995,1.16176 -2.59995,2.59995 0,1.43697 1.16176,2.59995 2.59995,2.59995 1.4382,0 2.59996,-1.16175 2.59996,-2.59995 0,-1.43697 -1.15933,-2.59995 -2.59996,-2.59995 z"
         inkscape:connector-curvature="0"
         style="fill:#000000;fill-opacity:0.75;stroke:#40330d;stroke-width:1.21777511;stroke-opacity:1" />
    </g>
  </g>
</svg>
